<svg xmlns="http://www.w3.org/2000/svg" viewBox="0 0 54.57 37.66"><defs><style>.cls-1{fill:none;}</style></defs><title>Asset 11</title><g id="Layer_2" data-name="Layer 2"><g id="Layer_1-2" data-name="Layer 1"><path class="cls-1" d="M33.35,0" transform="translate(0 -3.69)"/><path class="cls-1" d="M10.09,3.69a5.43,5.43,0,0,0-3.5,2.2A40.29,40.29,0,0,0,4.33,9.48a7.36,7.36,0,0,1-3,2.92A1.61,1.61,0,0,1,0,12.52c.13-.37.67-.24,1-.08a5.41,5.41,0,0,0,5.15-.62A6.63,6.63,0,0,0,8.83,7.27,3.27,3.27,0,0,0,8,4.37,3.26,3.26,0,0,0,6,3.7a5.77,5.77,0,0,0-3.69,1A3.89,3.89,0,0,0,.7,8.12a1.15,1.15,0,0,0,.21.61A1.13,1.13,0,0,0,2.08,9,2.67,2.67,0,0,0,3.93,7.12" transform="translate(0 -3.69)"/><path class="cls-1" d="M10.5,10.28a2.47,2.47,0,0,0,3-1.37,1.92,1.92,0,0,0-2.25-.17,3,3,0,0,0-1.3,2,1.11,1.11,0,0,0,.07.84c.27.42.89.37,1.37.25a15.16,15.16,0,0,0,4.92-2.19c.33-.23.7-.61.54-1a3,3,0,0,0-3.09,2,1.36,1.36,0,0,0,0,.85c.33.91,1.69.68,2.51.16a10.53,10.53,0,0,0,4.25-5.33q-2.94,4.94-5.83,9.92a59.79,59.79,0,0,1,3.72-5.8,2.41,2.41,0,0,1,1.09-1A1.28,1.28,0,0,1,21,10.89a1.28,1.28,0,0,1-2,.62c1.22-.63,2.6-.87,3.85-1.45a3.77,3.77,0,0,0,2.43-3,14,14,0,0,0-2.57,4.7,1,1,0,0,0,0,.64c.2.51,1,.37,1.44.11a15.74,15.74,0,0,0,7.17-7.93c-.76,0-1.3.69-1.71,1.33q-2,3.08-3.87,6.21a5.92,5.92,0,0,1,4.15-2.66A12.22,12.22,0,0,0,29,12a7.31,7.31,0,0,0,4-2.53l-.86,1.7c-.1.2-.2.45-.07.63s.61.09.87-.11L35,10.13" transform="translate(0 -3.69)"/><path class="cls-1" d="M23.22,8.38h3.25" transform="translate(0 -3.69)"/><path class="cls-1" d="M34.61,6.4a.13.13,0,0,0,0,.22.25.25,0,1,0-.14-.25" transform="translate(0 -3.69)"/><path class="cls-1" d="M21.8,24.34A1.17,1.17,0,0,0,20.21,24a6.55,6.55,0,0,0-1.33,1.23,4.67,4.67,0,0,1-2,1.15,1.49,1.49,0,0,1-1,0,1.15,1.15,0,0,1-.59-1.23A2.49,2.49,0,0,1,16,23.92a7.41,7.41,0,0,1,2.49-1.72c.48-.21,1.08-.56.94-1.07s-.66-.52-1.05-.39a2,2,0,0,0-1.14,1.18,4,4,0,0,0-.19,1.67,4,4,0,0,0,1.1,2.74,3.51,3.51,0,0,0,3.13.64,10.37,10.37,0,0,0,3-1.4" transform="translate(0 -3.69)"/><path class="cls-1" d="M31.48,32.76c-.21-.21-.57-.08-.82.08-3,1.9-4.42,5.71-7.46,7.58a1.73,1.73,0,0,1-.81.31.7.7,0,0,1-.7-.42c-.09-.28.16-.63.44-.58a6.51,6.51,0,0,0,1.34,1.17,3.84,3.84,0,0,0,4.11-.34,5.7,5.7,0,0,0,2.11-3.7,3.18,3.18,0,0,0-.24-2.11c-.61-1-2-1.31-3.2-1.37a3.2,3.2,0,0,0-1.44.17,3.08,3.08,0,0,0-1.17,1.09c-.42.58-.8,1.39-.39,2s1.45.44,2.16.12A13.87,13.87,0,0,0,27,35.87" transform="translate(0 -3.69)"/><path class="cls-1" d="M32.53,37.33A17.49,17.49,0,0,0,30.73,40a.52.52,0,0,0-.09.35c.06.29.48.26.75.14a11.28,11.28,0,0,0,3.92-2.71A17.44,17.44,0,0,0,33,41.1a8,8,0,0,1,4.29-3.55l-1.21,2.9,5.45-2.32c.44-.19,1-.63.71-1s-.7-.21-1,0c-1.24.59-2.56,1.69-2.33,3a.85.85,0,0,0,.32.58,1.11,1.11,0,0,0,1-.1,56.14,56.14,0,0,0,5.35-2.84c-.09-.47-.87-.45-1.12,0a1.93,1.93,0,0,0,0,1.41,1.66,1.66,0,0,1-.13,1.39.89.89,0,0,1-1.49-.6.72.72,0,0,0,.58.83,1.9,1.9,0,0,0,1.11-.18,13.61,13.61,0,0,0,6.45-5.31c.4-.63.74-1.49.29-2.09a3.92,3.92,0,0,0-1.46,1.63l-3.9,6.48a6.08,6.08,0,0,1,4.84-3.39,6.93,6.93,0,0,0-1,2.82l4.86-2.87" transform="translate(0 -3.69)"/><path class="cls-1" d="M33.68,35.4a.36.36,0,1,0,0-.06l.45-.1" transform="translate(0 -3.69)"/></g></g></svg>