<svg xmlns="http://www.w3.org/2000/svg" viewBox="0 0 68.06 37.85"><title>Asset 17</title><g id="Layer_2" data-name="Layer 2"><g id="Layer_1-2" data-name="Layer 1"><path d="M10.49.1A4.19,4.19,0,0,0,8.35,1.18a2.64,2.64,0,0,1,.47.6,3.8,3.8,0,0,1,.31.7,4.36,4.36,0,0,1,.17.75A5.32,5.32,0,0,1,9.36,4a4.41,4.41,0,0,1-.47,2A5.35,5.35,0,0,1,7.66,7.59,5.92,5.92,0,0,1,5.94,8.66,5.12,5.12,0,0,1,4,9L3.34,9,2.81,9l-.43-.07L2,8.82l-.32.05-.3.05L1,9H.6a1.41,1.41,0,0,1-.44-.05A.2.2,0,0,1,0,8.72a.2.2,0,0,1,.13-.2.85.85,0,0,1,.33-.05l.28,0,.31.05.39.08L2,8.71a2.54,2.54,0,0,0,1.12-.64,7.34,7.34,0,0,0,1-1.14q.46-.66.91-1.45t.92-1.58q.47-.79,1-1.51A7.14,7.14,0,0,1,8.06,1.15,3,3,0,0,0,6.94.56,4.21,4.21,0,0,0,5.81.38,5.47,5.47,0,0,0,3.92.72a5.4,5.4,0,0,0-1.63.94A4.72,4.72,0,0,0,1.14,3.07,3.74,3.74,0,0,0,.71,4.85a3.49,3.49,0,0,0,.07.73A1.68,1.68,0,0,0,1,6.18a1.26,1.26,0,0,0,.47.41,1.55,1.55,0,0,0,.72.15,2,2,0,0,0,1-.26A2.44,2.44,0,0,0,4,5.79a3.46,3.46,0,0,0,.5-1,4.1,4.1,0,0,0,.18-1.22V3.14H4.8v.35a4.44,4.44,0,0,1-.2,1.37A3.39,3.39,0,0,1,4,6a2.69,2.69,0,0,1-.88.72A2.38,2.38,0,0,1,2,6.94a1.73,1.73,0,0,1-.8-.17A1.63,1.63,0,0,1,.68,6.3a2,2,0,0,1-.34-.67,2.8,2.8,0,0,1-.11-.8A3.3,3.3,0,0,1,.65,3.28,5.48,5.48,0,0,1,1.82,1.79,6.29,6.29,0,0,1,3.58.68,5.47,5.47,0,0,1,5.77.24,4,4,0,0,1,7.08.45,3.93,3.93,0,0,1,8.2,1,6.7,6.7,0,0,1,9.26.38,4,4,0,0,1,10.46,0ZM3.79,8.9a4.49,4.49,0,0,0,1.54-.25A4.68,4.68,0,0,0,6.58,8a4.6,4.6,0,0,0,1-1,6.65,6.65,0,0,0,.68-1.22,6.71,6.71,0,0,0,.41-1.32,6.6,6.6,0,0,0,.14-1.31,3.66,3.66,0,0,0-.13-1,1.91,1.91,0,0,0-.43-.81,8.06,8.06,0,0,0-.91,1.25Q6.9,3.29,6.49,4T5.65,5.51a12,12,0,0,1-.94,1.37A7.14,7.14,0,0,1,3.59,8a4.31,4.31,0,0,1-1.41.75v0a6,6,0,0,0,.75.1Z"/><path d="M14.77,5.75a7.88,7.88,0,0,1-.45.66,7.39,7.39,0,0,1-.61.71,10,10,0,0,1-.73.68,6.66,6.66,0,0,1-.81.59,4.42,4.42,0,0,1-.85.41,2.5,2.5,0,0,1-.83.15,1.1,1.1,0,0,1-.78-.26A1,1,0,0,1,9.43,8a2.32,2.32,0,0,1,.32-1.11,4.7,4.7,0,0,1,.81-1.07A4.79,4.79,0,0,1,11.64,5a2.34,2.34,0,0,1,1.13-.32.77.77,0,0,1,.47.13.43.43,0,0,1,.17.37.76.76,0,0,1-.31.56,3.57,3.57,0,0,1-.76.49,7.77,7.77,0,0,1-1,.4,8.32,8.32,0,0,1-.91.26,2.52,2.52,0,0,0-.22.54,2.23,2.23,0,0,0-.08.6,1.32,1.32,0,0,0,0,.28.86.86,0,0,0,.1.25.53.53,0,0,0,.18.19.52.52,0,0,0,.28.07,2.2,2.2,0,0,0,.93-.26,6,6,0,0,0,1.09-.69,8.71,8.71,0,0,0,1.06-1,7.53,7.53,0,0,0,.86-1.14Zm-1.94-.64a.33.33,0,0,0-.09-.25.31.31,0,0,0-.22-.08A1,1,0,0,0,12,5a3.75,3.75,0,0,0-.58.49,4.87,4.87,0,0,0-.52.63,3.86,3.86,0,0,0-.35.6,4.5,4.5,0,0,0,.66-.19,4.78,4.78,0,0,0,.76-.34,2.73,2.73,0,0,0,.63-.47A.82.82,0,0,0,12.83,5.11Z"/><path d="M18.77,5.75a7.85,7.85,0,0,1-.45.66,7.68,7.68,0,0,1-.61.71q-.34.35-.73.68a6.66,6.66,0,0,1-.81.59,4.44,4.44,0,0,1-.85.41,2.5,2.5,0,0,1-.83.15,1.1,1.1,0,0,1-.78-.26A1,1,0,0,1,13.43,8a2.32,2.32,0,0,1,.32-1.11,4.7,4.7,0,0,1,.81-1.07A4.8,4.8,0,0,1,15.64,5a2.34,2.34,0,0,1,1.13-.32.76.76,0,0,1,.47.13.43.43,0,0,1,.17.37.75.75,0,0,1-.31.56,3.59,3.59,0,0,1-.76.49,7.8,7.8,0,0,1-1,.4,8.35,8.35,0,0,1-.91.26,2.52,2.52,0,0,0-.22.54,2.23,2.23,0,0,0-.08.6,1.35,1.35,0,0,0,0,.28.86.86,0,0,0,.1.25.53.53,0,0,0,.18.19.52.52,0,0,0,.28.07,2.2,2.2,0,0,0,.93-.26,6.05,6.05,0,0,0,1.09-.69,8.67,8.67,0,0,0,1.06-1,7.53,7.53,0,0,0,.86-1.14Zm-1.94-.64a.33.33,0,0,0-.09-.25.31.31,0,0,0-.22-.08A1,1,0,0,0,16,5a3.77,3.77,0,0,0-.58.49,4.82,4.82,0,0,0-.52.63,3.9,3.9,0,0,0-.35.6,4.5,4.5,0,0,0,.66-.19,4.8,4.8,0,0,0,.76-.34,2.72,2.72,0,0,0,.63-.47A.82.82,0,0,0,16.82,5.11Z"/><path d="M21.52,2.4q-.64,1-1.32,1.91T18.89,6.23l0,0q.18-.24.42-.52a5.43,5.43,0,0,1,.52-.53,2.76,2.76,0,0,1,.6-.41,1.46,1.46,0,0,1,.66-.16,1,1,0,0,1,.65.2.84.84,0,0,1,.26.71,2.08,2.08,0,0,1-.08.59,2.57,2.57,0,0,1-.22.53,3,3,0,0,1-.31.46q-.17.21-.35.39l0,0a4.48,4.48,0,0,0,1.57-.59A5.68,5.68,0,0,0,24,5.65l.1,0a7,7,0,0,1-1,1,4.53,4.53,0,0,1-.86.56,3.41,3.41,0,0,1-.73.26l-.64.14-.46.37q-.26.22-.55.41a3.67,3.67,0,0,1-.6.34,1.56,1.56,0,0,1-.64.14.67.67,0,0,1-.33-.09.31.31,0,0,1-.16-.29.5.5,0,0,1,.25-.42,2.06,2.06,0,0,1,.6-.27,5.31,5.31,0,0,1,.74-.16l.65-.08a3.58,3.58,0,0,0,.32-.44A4.66,4.66,0,0,0,21,6.66a4,4,0,0,0,.22-.59,2.18,2.18,0,0,0,.08-.57A.84.84,0,0,0,21.18,5a.38.38,0,0,0-.29-.13,1.08,1.08,0,0,0-.58.2,3.7,3.7,0,0,0-.62.52,8.3,8.3,0,0,0-.62.71q-.31.39-.57.77L18,7.73q-.22.33-.36.52l-.31.46-.46.68-.53.83-.56.89-.53.87-.44.76h-.74q1.62-2.6,3.31-5.17T20.72,2.4Zm-2.7,6.41a.86.86,0,0,0,.4-.12,2.9,2.9,0,0,0,.43-.29A4.6,4.6,0,0,0,20,8.06l.24-.25,0,0-.51.08a5.42,5.42,0,0,0-.59.11,1.65,1.65,0,0,0-.48.2.39.39,0,0,0-.2.34.24.24,0,0,0,.11.22A.42.42,0,0,0,18.82,8.81Z"/><path d="M26.1,3.34l-.95,1.39h1.58l-.07.14H25.06q-.48.78-.86,1.35t-.64,1a6.91,6.91,0,0,0-.39.7,1.2,1.2,0,0,0-.13.5.33.33,0,0,0,.16.32.7.7,0,0,0,.36.09,1.82,1.82,0,0,0,1-.33,7.15,7.15,0,0,0,1-.81,13.33,13.33,0,0,0,1-1q.47-.54.79-1l.07,0q-.41.52-.89,1.09a12,12,0,0,1-1,1,6.4,6.4,0,0,1-1,.79,1.94,1.94,0,0,1-1,.31,1,1,0,0,1-.64-.23.79.79,0,0,1-.27-.64,1.5,1.5,0,0,1,.16-.62,6.12,6.12,0,0,1,.41-.74q.25-.4.57-.86c.21-.31.43-.64.65-1H23.7l.07-.14h.67l.94-1.39Z"/><path d="M31.33.55,27.08,6.86l0,0,.56-.69a7.63,7.63,0,0,1,.7-.74,4.4,4.4,0,0,1,.8-.59A1.68,1.68,0,0,1,30,4.63a.65.65,0,0,1,.73.73,1,1,0,0,1-.14.46,4.75,4.75,0,0,1-.35.56q-.21.29-.45.59l-.45.58a5,5,0,0,0-.35.53.89.89,0,0,0-.14.41.32.32,0,0,0,.08.22.26.26,0,0,0,.21.09,1.31,1.31,0,0,0,.61-.17,4.39,4.39,0,0,0,.68-.46,8.22,8.22,0,0,0,.7-.63q.35-.35.64-.69t.53-.65a4.72,4.72,0,0,0,.34-.5l.07,0a6.22,6.22,0,0,1-.37.55q-.24.32-.55.68c-.2.24-.42.48-.66.71a8.55,8.55,0,0,1-.71.64,4,4,0,0,1-.7.46A1.46,1.46,0,0,1,29.1,9a.67.67,0,0,1-.71-.72,1.22,1.22,0,0,1,.14-.53,3.82,3.82,0,0,1,.35-.58q.21-.29.45-.59L29.78,6a5,5,0,0,0,.35-.49.76.76,0,0,0,.14-.38.3.3,0,0,0-.11-.26.46.46,0,0,0-.26-.07,1.31,1.31,0,0,0-.67.22,4.77,4.77,0,0,0-.76.58,9.52,9.52,0,0,0-.77.81q-.38.45-.73.91t-.6.86a8,8,0,0,0-.4.7h-.78l1.36-2.1,1.39-2.12,1.35-2.08,1.25-2Z"/><path d="M34,4.73l-1.12,1.6q-.46.65-.74,1.08a7.52,7.52,0,0,0-.41.68,1,1,0,0,0-.13.41q0,.31.25.31a1.2,1.2,0,0,0,.56-.17,4.76,4.76,0,0,0,.67-.45,8.33,8.33,0,0,0,.7-.62q.35-.35.65-.69T35,6.21a4.31,4.31,0,0,0,.34-.52l.1.06q-.15.24-.39.58T34.46,7q-.31.35-.66.7a7,7,0,0,1-.71.62,4.23,4.23,0,0,1-.7.44,1.44,1.44,0,0,1-.63.17.6.6,0,0,1-.48-.18.59.59,0,0,1-.16-.4,1.42,1.42,0,0,1,.11-.53,4.65,4.65,0,0,1,.37-.69q.25-.41.65-1t1-1.43Zm.7-2.23a.36.36,0,0,1,.28.11.42.42,0,0,1,0,.56.39.39,0,0,1-.55,0,.42.42,0,0,1,0-.56A.37.37,0,0,1,34.69,2.5Z"/><path d="M43.44,21.8A3.4,3.4,0,0,1,42.18,23a3.35,3.35,0,0,1-1.57.4,3.93,3.93,0,0,1-.5,0,4,4,0,0,1-.56-.11A3.27,3.27,0,0,1,39,23a2.58,2.58,0,0,1-.48-.29l-.28.22a2.31,2.31,0,0,1-.79.37,2.1,2.1,0,0,1-.52.06,1.92,1.92,0,0,1-.71-.13,1.61,1.61,0,0,1-.54-.34,1.48,1.48,0,0,1-.34-.51,1.65,1.65,0,0,1-.12-.63,1.86,1.86,0,0,1,.15-.74,2.63,2.63,0,0,1,.4-.65,3.11,3.11,0,0,1,.57-.53,3.49,3.49,0,0,1,.65-.37,2.59,2.59,0,0,1,.16-.85,3.45,3.45,0,0,1,.45-.86,2.84,2.84,0,0,1,.67-.67,1.41,1.41,0,0,1,.83-.27.8.8,0,0,1,.54.19.66.66,0,0,1,.22.53.83.83,0,0,1-.26.58,3.46,3.46,0,0,1-.62.5,6.4,6.4,0,0,1-.74.41l-.61.31A3.89,3.89,0,0,0,38,20.89a4.56,4.56,0,0,0,.9,1.32,6.67,6.67,0,0,0,.8-.85q.36-.46.69-.85a4.52,4.52,0,0,1,.66-.65,1.12,1.12,0,0,1,.7-.26.81.81,0,0,1,.52.17.54.54,0,0,1,.21.44.53.53,0,0,1-.05.22.66.66,0,0,1-.14.2A.82.82,0,0,0,42,20.3a1,1,0,0,0-.53-.14,1,1,0,0,0-.43.09,1.57,1.57,0,0,0-.37.24,3.48,3.48,0,0,0-.34.34l-.34.41a13.45,13.45,0,0,1-1,1.06,3.3,3.3,0,0,0,.86.61,2.28,2.28,0,0,0,1,.25,2.52,2.52,0,0,0,.73-.11,3.05,3.05,0,0,0,.68-.3,3.6,3.6,0,0,0,.6-.44,3.13,3.13,0,0,0,.48-.55Zm-7.57-.25a1.79,1.79,0,0,0,.09.56,1.58,1.58,0,0,0,.25.49,1.25,1.25,0,0,0,.39.34,1,1,0,0,0,.52.13,1.93,1.93,0,0,0,.76-.13,2.31,2.31,0,0,0,.54-.31,4,4,0,0,1-1.42-3,1.56,1.56,0,0,0-.49.33,2.06,2.06,0,0,0-.35.47,2.3,2.3,0,0,0-.22.56A2.58,2.58,0,0,0,35.87,21.55Zm3.52-4.09q0-.52-.43-.52a.89.89,0,0,0-.56.25,1.9,1.9,0,0,0-.5.71,2.67,2.67,0,0,0-.22.74,4.94,4.94,0,0,0,0,.56l.67-.32a3.06,3.06,0,0,0,.56-.37,1.58,1.58,0,0,0,.38-.46A1.21,1.21,0,0,0,39.38,17.46Z"/><path d="M46.49,28.9A4.2,4.2,0,0,0,44.35,30a2.66,2.66,0,0,1,.47.6,3.81,3.81,0,0,1,.31.7,4.35,4.35,0,0,1,.17.75,5.32,5.32,0,0,1,.05.74,4.41,4.41,0,0,1-.47,2,5.34,5.34,0,0,1-1.23,1.61,5.92,5.92,0,0,1-1.72,1.07,5.12,5.12,0,0,1-1.94.39l-.66,0-.52,0-.43-.07-.4-.09-.32.05-.3.05-.34,0H36.6a1.42,1.42,0,0,1-.44-.05.2.2,0,0,1-.16-.2.2.2,0,0,1,.13-.2.84.84,0,0,1,.33-.05l.28,0,.31.05.39.08.53.09a2.55,2.55,0,0,0,1.12-.64,7.33,7.33,0,0,0,1-1.14q.46-.66.91-1.45t.92-1.58q.47-.79,1-1.51A7.12,7.12,0,0,1,44.06,30a3,3,0,0,0-1.12-.59,4.21,4.21,0,0,0-1.13-.17,5.54,5.54,0,0,0-3.52,1.27,4.73,4.73,0,0,0-1.15,1.42,3.74,3.74,0,0,0-.43,1.78,3.52,3.52,0,0,0,.07.73A1.68,1.68,0,0,0,37,35a1.26,1.26,0,0,0,.47.41,1.54,1.54,0,0,0,.72.15,2,2,0,0,0,1-.26,2.44,2.44,0,0,0,.77-.7,3.46,3.46,0,0,0,.5-1,4.1,4.1,0,0,0,.18-1.22v-.41h.14v.35a4.44,4.44,0,0,1-.2,1.37A3.4,3.4,0,0,1,40,34.76a2.69,2.69,0,0,1-.88.72,2.38,2.38,0,0,1-1.1.26,1.74,1.74,0,0,1-.8-.17,1.63,1.63,0,0,1-.56-.46,2,2,0,0,1-.34-.67,2.8,2.8,0,0,1-.11-.8,3.3,3.3,0,0,1,.43-1.55,5.49,5.49,0,0,1,1.17-1.48,6.3,6.3,0,0,1,1.76-1.12A5.47,5.47,0,0,1,41.77,29a4,4,0,0,1,1.31.21,3.93,3.93,0,0,1,1.12.59,6.72,6.72,0,0,1,1.07-.67,4,4,0,0,1,1.2-.38Zm-6.7,8.81a4.48,4.48,0,0,0,1.54-.25,4.69,4.69,0,0,0,1.25-.68,4.63,4.63,0,0,0,1-1,6.65,6.65,0,0,0,.68-1.22,6.74,6.74,0,0,0,.41-1.32,6.6,6.6,0,0,0,.14-1.31,3.68,3.68,0,0,0-.13-1,1.9,1.9,0,0,0-.43-.81,8.1,8.1,0,0,0-.91,1.25q-.41.7-.82,1.44t-.84,1.48a12.08,12.08,0,0,1-.94,1.37,7.13,7.13,0,0,1-1.12,1.13,4.3,4.3,0,0,1-1.41.75v0a6,6,0,0,0,.75.1Z"/><path d="M48,33.53l-1.12,1.6q-.46.65-.74,1.08a7.52,7.52,0,0,0-.41.68,1,1,0,0,0-.13.41q0,.31.25.31a1.2,1.2,0,0,0,.56-.17A4.76,4.76,0,0,0,47.1,37a8.33,8.33,0,0,0,.7-.62q.35-.35.65-.69T49,35a4.31,4.31,0,0,0,.34-.52l.1.06q-.15.24-.39.58t-.56.69q-.31.35-.66.7a7,7,0,0,1-.71.62,4.23,4.23,0,0,1-.7.44,1.44,1.44,0,0,1-.63.17.6.6,0,0,1-.48-.18.59.59,0,0,1-.16-.4,1.42,1.42,0,0,1,.11-.53,4.65,4.65,0,0,1,.37-.69q.25-.41.65-1t1-1.43Zm.7-2.23a.36.36,0,0,1,.28.11A.42.42,0,0,1,49,32a.39.39,0,0,1-.55,0,.42.42,0,0,1,0-.56A.37.37,0,0,1,48.71,31.3Z"/><path d="M50.53,33.53l-1.58,2.2,0,0,.59-.7a8.62,8.62,0,0,1,.72-.76,4.65,4.65,0,0,1,.8-.61,1.6,1.6,0,0,1,.82-.25.76.76,0,0,1,.56.2.69.69,0,0,1,.2.51,1,1,0,0,1-.14.46,5.69,5.69,0,0,1-.34.56c-.14.2-.28.4-.44.61l-.44.59q-.21.28-.34.52a.82.82,0,0,0-.14.39.3.3,0,0,0,.34.34,1.6,1.6,0,0,0,.82-.26,5.51,5.51,0,0,0,1-.87q.24-.24.49-.53l.47-.57.41-.53c.12-.17.22-.31.29-.42l.08,0q-.24.36-.62.86t-.82,1c-.18.19-.36.38-.54.55a5.16,5.16,0,0,1-.55.46,2.85,2.85,0,0,1-.55.31,1.37,1.37,0,0,1-.53.11.86.86,0,0,1-.58-.19.65.65,0,0,1-.23-.53,1.44,1.44,0,0,1,.29-.79q.29-.43.64-.86t.64-.83a1.24,1.24,0,0,0,.29-.7.25.25,0,0,0-.1-.22.41.41,0,0,0-.25-.07,1.34,1.34,0,0,0-.67.22,4.47,4.47,0,0,0-.76.59,11,11,0,0,0-.78.82q-.39.45-.73.9t-.6.86a6.65,6.65,0,0,0-.4.69h-.74q.31-.53.67-1.07l.7-1.08.67-1,.57-.91Z"/><path d="M58.76,34.55a7.65,7.65,0,0,1-.45.66,7.52,7.52,0,0,1-.61.71q-.34.35-.73.68a6.66,6.66,0,0,1-.81.59,4.42,4.42,0,0,1-.85.41,2.5,2.5,0,0,1-.83.15,1.1,1.1,0,0,1-.78-.26,1,1,0,0,1-.28-.74,2.31,2.31,0,0,1,.32-1.11,4.67,4.67,0,0,1,.81-1.07,4.78,4.78,0,0,1,1.08-.82,2.33,2.33,0,0,1,1.13-.32.77.77,0,0,1,.47.13.43.43,0,0,1,.17.37.75.75,0,0,1-.31.56,3.57,3.57,0,0,1-.76.49,7.74,7.74,0,0,1-1,.4,8.23,8.23,0,0,1-.91.26,2.52,2.52,0,0,0-.22.54,2.23,2.23,0,0,0-.08.6,1.29,1.29,0,0,0,0,.28.86.86,0,0,0,.1.25.53.53,0,0,0,.18.19.51.51,0,0,0,.28.07,2.2,2.2,0,0,0,.93-.26,6.05,6.05,0,0,0,1.09-.69,8.74,8.74,0,0,0,1.06-1,7.53,7.53,0,0,0,.86-1.14Zm-1.94-.64a.33.33,0,0,0-.09-.25.31.31,0,0,0-.22-.08,1,1,0,0,0-.55.2,3.73,3.73,0,0,0-.58.49,4.91,4.91,0,0,0-.52.63,4,4,0,0,0-.35.6,4.54,4.54,0,0,0,.66-.19,4.8,4.8,0,0,0,.76-.34,2.72,2.72,0,0,0,.63-.47A.82.82,0,0,0,56.82,33.91Z"/><path d="M62.72,34.56a10.44,10.44,0,0,1-.83,1.15,7.41,7.41,0,0,1-1,1,5.14,5.14,0,0,1-1.23.74,3.61,3.61,0,0,1-1.42.28,2,2,0,0,1-.54-.07,1.29,1.29,0,0,1-.44-.22,1.08,1.08,0,0,1-.3-.37,1.13,1.13,0,0,1-.11-.52A.88.88,0,0,1,57,36a.67.67,0,0,1,.55-.25.46.46,0,0,1,.29.09.32.32,0,0,1,.11.27.49.49,0,0,1-.08.29.29.29,0,0,1-.25.12.3.3,0,0,1-.21-.07.34.34,0,0,1-.1-.18.37.37,0,0,0-.18.21.87.87,0,0,0,0,.28.71.71,0,0,0,.32.63,1.27,1.27,0,0,0,.71.21.9.9,0,0,0,.44-.1,1,1,0,0,0,.31-.26,1.08,1.08,0,0,0,.19-.38,1.61,1.61,0,0,0,.06-.43A1.58,1.58,0,0,0,59,36c-.05-.16-.11-.33-.17-.49L58.69,35a1.31,1.31,0,0,1-.08-.44,1,1,0,0,1,.11-.47,1,1,0,0,1,.29-.35,1.39,1.39,0,0,1,.43-.22,1.63,1.63,0,0,1,.5-.08,1.33,1.33,0,0,1,.78.21.65.65,0,0,1,.3.56.5.5,0,0,1-.23.46,1,1,0,0,1-.52.14,1.61,1.61,0,0,0,.13-.32,1.23,1.23,0,0,0,.05-.34.57.57,0,0,0-.15-.4.55.55,0,0,0-.43-.16.62.62,0,0,0-.52.21.79.79,0,0,0-.17.51,1.43,1.43,0,0,0,.09.5,5.12,5.12,0,0,0,.21.48q.11.24.2.49a1.65,1.65,0,0,1,.09.56,1,1,0,0,1-.1.44,1.48,1.48,0,0,1-.27.38,1.64,1.64,0,0,1-.38.29,1.27,1.27,0,0,1-.43.16l0,0a3.49,3.49,0,0,0,1.24-.38,5.78,5.78,0,0,0,1.1-.74,7.92,7.92,0,0,0,.94-1,10.62,10.62,0,0,0,.76-1Z"/><path d="M66.66,29.35l-4.25,6.31,0,0L63,35a7.63,7.63,0,0,1,.7-.74,4.4,4.4,0,0,1,.8-.59,1.68,1.68,0,0,1,.84-.24.65.65,0,0,1,.73.73,1,1,0,0,1-.14.46,4.75,4.75,0,0,1-.35.56q-.21.29-.45.59l-.45.58a5,5,0,0,0-.35.53.89.89,0,0,0-.14.41.32.32,0,0,0,.08.22.26.26,0,0,0,.21.09,1.31,1.31,0,0,0,.61-.17,4.39,4.39,0,0,0,.68-.46,8.22,8.22,0,0,0,.7-.63q.35-.35.64-.69t.53-.65a4.72,4.72,0,0,0,.34-.5l.07,0a6.22,6.22,0,0,1-.37.55q-.24.32-.55.68c-.2.24-.42.48-.66.71a8.55,8.55,0,0,1-.71.64,4,4,0,0,1-.7.46,1.46,1.46,0,0,1-.65.17.67.67,0,0,1-.71-.72,1.22,1.22,0,0,1,.14-.53,3.82,3.82,0,0,1,.35-.58q.21-.29.45-.59l.45-.56a5,5,0,0,0,.35-.49.76.76,0,0,0,.14-.38.3.3,0,0,0-.11-.26.46.46,0,0,0-.26-.07,1.31,1.31,0,0,0-.67.22,4.77,4.77,0,0,0-.76.58,9.52,9.52,0,0,0-.77.81q-.38.45-.73.91t-.6.86a8,8,0,0,0-.4.7h-.78l1.36-2.1,1.39-2.12,1.35-2.08,1.25-2Z"/></g></g></svg>