<svg xmlns="http://www.w3.org/2000/svg" viewBox="0 0 34.68 13.06"><defs><style>.cls-1{fill:none;}</style></defs><title>Asset 10</title><g id="Layer_2" data-name="Layer 2"><g id="Layer_1-2" data-name="Layer 1"><path class="cls-1" d="M10.51.12A4.41,4.41,0,0,0,7.8,1.7,17,17,0,0,0,6.05,4.38Q5.24,5.77,4.31,7.09A6,6,0,0,1,1.74,9.45c-.36.14-.86.16-1-.18a.62.62,0,0,1,.41-.8,1.56,1.56,0,0,1,1,.08,6,6,0,0,0,2.38.59A4,4,0,0,0,6.86,7.66C8.06,6.4,9.19,4.89,9.21,3.16A2.23,2.23,0,0,0,9,2.11a2.45,2.45,0,0,0-1.17-1A5.67,5.67,0,0,0,3.26,1,5.67,5.67,0,0,0,.13,4.33,1.6,1.6,0,0,0,0,5.16,1.15,1.15,0,0,0,.82,6,2,2,0,0,0,2,5.93,3.24,3.24,0,0,0,4.2,3.26"/><path class="cls-1" d="M9.72,6.85a5.07,5.07,0,0,0,2.76-1,.85.85,0,0,0,.41-.59.6.6,0,0,0-.49-.56,1.37,1.37,0,0,0-.78.1A4,4,0,0,0,9.3,7.12a1.23,1.23,0,0,0,.2,1.42,1.41,1.41,0,0,0,1.3,0q1.93-.72,3.8-1.61a6.85,6.85,0,0,0,1.85-1.15c.2-.19.39-.51.23-.73a.53.53,0,0,0-.24-.16,2,2,0,0,0-1.84.3,4.72,4.72,0,0,0-1.25,1.47c-.32.53-.58,1.31-.09,1.7a1.11,1.11,0,0,0,.57.2,3.87,3.87,0,0,0,2.71-.82,8.23,8.23,0,0,0,1.9-2.17,38.49,38.49,0,0,0,1.9-3.41,59.83,59.83,0,0,1-4.95,7.69l-2.33,3.25L17,7.66a5,5,0,0,1,2.57-2.2,1.19,1.19,0,0,1,1.12.2,1.28,1.28,0,0,1,0,1.5A3.3,3.3,0,0,1,19,8.61a.7.7,0,0,1-.76-.05.53.53,0,0,1,.07-.7A1.62,1.62,0,0,1,19,7.51c2.44-.8,4.9-2.23,5.89-4.6a33.13,33.13,0,0,0-1.94,3.72,2.41,2.41,0,0,0-.27,1.75.35.35,0,0,0,.16.21.4.4,0,0,0,.31,0,8.57,8.57,0,0,0,3-2.37A32.37,32.37,0,0,0,30.47,0q-3.17,4.48-6,9.2a12.54,12.54,0,0,1,5.25-4L28.22,8.59a.26.26,0,0,0,0,.22c.05.1.2.08.3.05a6.85,6.85,0,0,0,4-3.17,5.32,5.32,0,0,0-1.16,2.92,5.74,5.74,0,0,0,2.58-1.8"/><path class="cls-1" d="M24.05,4.89q1-.19,2.08-.3"/><path class="cls-1" d="M34.5,2.45a.9.9,0,0,0-.25.19.24.24,0,0,0-.08.21c0,.14.23.14.37.09s.19-.12.13-.19a.13.13,0,0,0-.08,0,.38.38,0,0,0-.38.15.23.23,0,0,0,0,.3c.08.07.25,0,.22-.1"/></g></g></svg>