<svg xmlns="http://www.w3.org/2000/svg" viewBox="0 0 52.49 38.35"><defs><style>.cls-1{fill:none;}</style></defs><title>Asset 12</title><g id="Layer_2" data-name="Layer 2"><g id="Layer_1-2" data-name="Layer 1"><path class="cls-1" d="M10.37.48c-1.17,0-2.09,1-2.73,1.93C6.84,3.65,6.18,5,5.31,6.17A7.09,7.09,0,0,1,1.92,8.9,2.06,2.06,0,0,1,.74,9,1,1,0,0,1,0,8.15,11.58,11.58,0,0,0,2.63,9.34a3.9,3.9,0,0,0,2.82-.21,4.16,4.16,0,0,0,.93-.71,7.55,7.55,0,0,0,2-7.15A1.64,1.64,0,0,0,8,.46,1.58,1.58,0,0,0,7.2.12a5.82,5.82,0,0,0-5.5,1.8A3.63,3.63,0,0,0,.7,4.3a1.49,1.49,0,0,0,.23.83,1.43,1.43,0,0,0,1.91.19,4.14,4.14,0,0,0,1.25-1.7"/><path class="cls-1" d="M10.09,7.19a4.25,4.25,0,0,0,2.09-.92c.27-.22.52-.62.3-.88a.55.55,0,0,0-.32-.16,1.56,1.56,0,0,0-1.35.48A4,4,0,0,0,10,7a2.6,2.6,0,0,0-.28,1,1,1,0,0,0,.45.88,1.39,1.39,0,0,0,1,0,15,15,0,0,0,3.67-1.57A3.16,3.16,0,0,0,16.34,5.8a.46.46,0,0,0,0-.3c-.06-.19-.3-.24-.5-.23a2.18,2.18,0,0,0-1.63.94A3.12,3.12,0,0,0,13.71,8a1,1,0,0,0,.24.74,1,1,0,0,0,.68.2,5.3,5.3,0,0,0,3-1A10.91,10.91,0,0,0,19.94,5.7a4.67,4.67,0,0,0,1.21-2.57c-.65.09-1.07.71-1.41,1.27a107.62,107.62,0,0,1-6.36,9.4,51.62,51.62,0,0,1,5.14-6.23A4.25,4.25,0,0,1,20,6.44a1.12,1.12,0,0,1,1.39.34,1,1,0,0,1,0,.81,2.62,2.62,0,0,1-2,1.25,1.87,1.87,0,0,1-.92,0A.69.69,0,0,1,18,8.23a1.4,1.4,0,0,0,1.49.6,5.36,5.36,0,0,0,3.19-2.06,14.88,14.88,0,0,0,2.73-4.68,14.89,14.89,0,0,0-2.74,4.37,1.58,1.58,0,0,0-.08,1.4,1.1,1.1,0,0,0,1.17.41,2.89,2.89,0,0,0,1.15-.64A23.09,23.09,0,0,0,28.8,3.53,6.54,6.54,0,0,0,30.22.76,9.87,9.87,0,0,0,28.3,3.57,47.28,47.28,0,0,1,25,8.78a6.45,6.45,0,0,1,5.49-3.32,26.82,26.82,0,0,0-1.78,3.65,2,2,0,0,0,1.39-.57,18.82,18.82,0,0,0,2.93-2.86A8,8,0,0,0,32,7.87a.47.47,0,0,0,0,.38c.13.23.48.1.7,0L35,6.58"/><path class="cls-1" d="M22.67,5.21,26.43,5"/><path class="cls-1" d="M34.67,3.32c0,.14-.25.17-.33,0a.34.34,0,0,1,.06-.4,2,2,0,0,1,.34-.27"/><path class="cls-1" d="M21.64,20.88a.54.54,0,0,0-.43-.52,1.21,1.21,0,0,0-.72.1c-1.36.54-2.25,1.88-3.55,2.57-.64.34-1.58.42-2-.19a1.35,1.35,0,0,1,.18-1.42,6.29,6.29,0,0,1,2.38-1.72,3.79,3.79,0,0,0,2-2,.37.37,0,0,0,0-.24.34.34,0,0,0-.17-.16,1.5,1.5,0,0,0-1.77.42,2.82,2.82,0,0,0-.59,1.83,5.23,5.23,0,0,0,.9,3A3.39,3.39,0,0,0,20,24a4.16,4.16,0,0,0,2.22-.31A25.09,25.09,0,0,0,27,21.11"/><path class="cls-1" d="M31.14,29.72a1.52,1.52,0,0,0-1.49.25,4.19,4.19,0,0,0-1,1.22,25.27,25.27,0,0,1-2.7,4,6.11,6.11,0,0,1-4.16,2.17c-.19,0-.46-.16-.33-.3.56,0,1,.48,1.45.78a3.86,3.86,0,0,0,4-.05,6.74,6.74,0,0,0,2.62-3.2,5.26,5.26,0,0,0,.51-2,2.61,2.61,0,0,0-.67-1.88A3.07,3.07,0,0,0,27.95,30a5.15,5.15,0,0,0-3.51.26,4,4,0,0,0-2.22,2.67,1.61,1.61,0,0,0,0,.74,1.44,1.44,0,0,0,2,.69A4.17,4.17,0,0,0,25.8,32.5"/><path class="cls-1" d="M32.44,34.13a8.07,8.07,0,0,0-1.68,2.75.34.34,0,0,0,0,.27c.06.12.24.13.38.1,1.66-.28,2.88-1.67,3.84-3l-2.2,3.59a11.18,11.18,0,0,1,4.93-4,11.88,11.88,0,0,0-1.5,3.1.53.53,0,0,0,0,.42c.12.21.44.16.67.08q2.08-.73,4.08-1.67a1.62,1.62,0,0,0,.69-.49.57.57,0,0,0-.07-.77.75.75,0,0,0-.59-.05,3.49,3.49,0,0,0-2.61,2.82.7.7,0,0,0,.13.62.64.64,0,0,0,.35.14,3.83,3.83,0,0,0,2.49-.85l3.45-2.2c.25-.16.53-.4.44-.68s-.56-.3-.75-.06a1,1,0,0,0-.06.89,4.67,4.67,0,0,1,.29.88,1.37,1.37,0,0,1-1.27,1.43,1.79,1.79,0,0,1-1.67-1.11,1.2,1.2,0,0,0,1.05,1A3,3,0,0,0,44.34,37a14.69,14.69,0,0,0,4.36-2.71,9.62,9.62,0,0,0,2.71-3.77.33.33,0,0,0,0-.23c0-.11-.2-.14-.32-.12-.54.08-.9.59-1.19,1L45.76,37.8a7.66,7.66,0,0,1,4.61-3.13,10,10,0,0,0-1.22,2,1.32,1.32,0,0,0,0,1.35,33.8,33.8,0,0,0,3.38-2.35"/><path class="cls-1" d="M33.74,31.79c-.16.06-.35.21-.26.36s.36,0,.54.08"/></g></g></svg>