<svg xmlns="http://www.w3.org/2000/svg" viewBox="0 0 35.25 12.49"><defs><style>.cls-1{fill:none;}</style></defs><title>Asset 13</title><g id="Layer_2" data-name="Layer 2"><g id="Layer_1-2" data-name="Layer 1"><path class="cls-1" d="M10.43,0A6.23,6.23,0,0,0,8.15,1.25,7.37,7.37,0,0,0,7,2.58c-.73,1-.91,1.44-2,3.17a8.53,8.53,0,0,1-1.4,2A3.92,3.92,0,0,1,1.73,8.85l-.23,0-.15,0L1.15,9,.9,9A2.22,2.22,0,0,1,.54,9C.35,9,0,8.89,0,8.77s.32-.25.59-.29a1.48,1.48,0,0,1,.66,0c.81.23,1.65.34,2.47.52,1.46.31,3-.74,3.87-1.59a5.34,5.34,0,0,0,1.47-3.5,3.59,3.59,0,0,0-.63-2.43C7.12-.13,4.33.56,4.06.63A5.17,5.17,0,0,0,.66,3.39c-.16.39-.76,1.86,0,2.8a2.14,2.14,0,0,0,2.1.59C4,6.47,4.88,5,4.72,3.17"/><path class="cls-1" d="M10,6.83a5.77,5.77,0,0,0,2.66-1.06c.47-.4.45-.65.44-.72a.64.64,0,0,0-.44-.47c-.5-.16-1.06.37-1.59.88A4.45,4.45,0,0,0,9.82,7.37c-.23.76-.05,1.07,0,1.16a1.08,1.08,0,0,0,.47.38c.65.28,2.49-.84,3.74-2"/><path class="cls-1" d="M14,6.87a16.31,16.31,0,0,0,1.84-.59c.55-.21.85-.37,1-.69s.27-.68.09-.84-1.4.28-2.09.94a3.75,3.75,0,0,0-1,1.78c-.09.37-.21.85.06,1.16a1.07,1.07,0,0,0,.84.25,2.69,2.69,0,0,0,1.41-.56,11.87,11.87,0,0,0,1.47-1,15,15,0,0,0,3.28-4.84c-.29-.17-6.39,10-6.31,10a62.92,62.92,0,0,0,4-5.69"/><path class="cls-1" d="M18.6,6.8c1-1.47,2.14-2.24,2.78-2a.78.78,0,0,1,.38.38c.5,1-.84,2.59-2,3.34-.3.19-.92.58-1.28.34a.55.55,0,0,1-.25-.53c.11-.43,1-.43,2-.66,1.39-.34,4.92-1.78,3-1.06"/><path class="cls-1" d="M25.63,3.59a27.61,27.61,0,0,0-2.84,4.47l-.16.31"/><path class="cls-1" d="M22.63,8.3a1.2,1.2,0,0,0,.66.59c.58.18,1.19-.31,1.47-.53,1.73-1.4,6.3-7.44,6-7.59s-1.07,1.17-5.25,8.06"/><path class="cls-1" d="M25.91,8.83c.81-1.13,1.45-2,2-2.88A2.84,2.84,0,0,1,29.07,4.9c.24-.11.87-.4,1.22-.09a1,1,0,0,1,.13,1"/><path class="cls-1" d="M30.41,5.83a9.52,9.52,0,0,1-1.53,1.94c-.16.17-.41.44-.34.69s.4.37.59.41c.44.08,1.05-.13,2.44-1.72a25.16,25.16,0,0,0,1.84-2.41s-.38.62-2.12,3.41"/><path class="cls-1" d="M31.16,8.49a.53.53,0,0,0,.19.38c.22.15.56,0,.72-.06a17.09,17.09,0,0,0,3.19-3"/><line class="cls-1" x1="23.72" y1="4.78" x2="26.71" y2="4.78"/><path class="cls-1" d="M34.32,3l.84-.25"/><path class="cls-1" d="M31.16,8.49l.14-.37"/><path class="cls-1" d="M25.54,8.78c0,.1.12.28.21.25a.29.29,0,0,0,.16-.25"/></g></g></svg>