<svg xmlns="http://www.w3.org/2000/svg" viewBox="0 0 34.87 16.47"><defs><style>.cls-1{fill:#ea1b1b;}</style></defs><title>Asset 14</title><g id="Layer_2" data-name="Layer 2"><g id="Layer_1-2" data-name="Layer 1"><path class="cls-1" d="M2.25,2A74.69,74.69,0,0,0,.66,10.39c-.05.53-.19,1.33.62,1,.15-.06.38-.44.5-.54a3.6,3.6,0,0,1,1.85-.68,3.8,3.8,0,0,0,1.93-.84,3.7,3.7,0,0,0,.81-4.81C5,2.33,2.07,2.26,0,3.36c.12-.06.36.07.5,0a3.94,3.94,0,0,1,5.05.72,3.66,3.66,0,0,1,.71,3.47,3.9,3.9,0,0,1-2.57,2.5A15.66,15.66,0,0,0,2,10.4c-.54.22-.83.82-1.31,1h.49c-.33-.15,0-1.73.07-2C1.66,7,2.21,4.47,2.75,2c0,0-.49-.06-.5,0Z" transform="translate(0 -0.48)"/><path class="cls-1" d="M8.28,9.13c.77-.21,3.11-2,1.77-2.7-.48-.24-1.39.19-1.74.45-1,.74-1.62,3.46-.31,4.22A2.36,2.36,0,0,0,9.89,11,12.43,12.43,0,0,0,13,8.6c.49-.41,2.08-2,.63-2.26-2.12-.36-3.45,4.35-1.25,4.75a2.81,2.81,0,0,0,2.25-.62,4.28,4.28,0,0,0,1.21-2.09c.07-.24.16-1.31.41-1.41h-.49c.24.14,0,1.13,0,1.34-.11,1-.26,2-.41,3s-.3,2.07-.42,3.12c-.07.62.08,2.05-.36,2.51h.49c-.64-.1-1-1.06-1.1-1.61a5.16,5.16,0,0,1,.42-2.38,17.3,17.3,0,0,1,2.48-5c.36-.45,1.58-1.67,2.18-1,.44.51-.37,1.95-.58,2.43-.38.85-.82,1.46-1.89,1.11-.09,0-.45.05-.49,0a3.16,3.16,0,0,0,4.36-.27,17.74,17.74,0,0,0,3-4.61c.38-.89.92-2.25.44-3.22-1-2.05-2.32,2-2.48,2.64-.37,1.35-1.2,6.17,1.25,6.13a2.35,2.35,0,0,0,1.91-1.15,36.6,36.6,0,0,0,1.87-3.45c.35-.69,2.8-6.34.72-6.13-1,.1-1.39,1.94-1.59,2.7a41.93,41.93,0,0,0-.62,5.64c0,.39-.67,3.22.46,2.13.6-.57,1.92-5.47,3.16-3.86.83,1.08-1.13,3.46.1,4.18,1.47.86,3.74-3,3.88-4a2.25,2.25,0,0,0-.5,0c-1,.81-1.51,3.35.13,3.72,1.38.31,2.29-1.1,2.75-2.18,0,0-.47-.08-.5,0-.37.89-2,3.28-2.71,1.32a3,3,0,0,1,.84-2.86H32a6.79,6.79,0,0,1-2.48,3.6c-.94.64-.76-.91-.61-1.51.21-.83.68-1.48.11-2.31a1.31,1.31,0,0,0-1.46-.5c-.92.3-1.43,1.72-1.83,2.49-.17.33-.64,1.93-1,2.06h.49c-.2-.15,0-.87,0-1.07.14-1.05.28-2.1.37-3.16A21.37,21.37,0,0,1,26,3.19c.17-.65.63-2.56,1.46-2.68H27c1.41,1-.37,4.54-.88,5.65-.3.65-.66,1.24-1,1.86a9.94,9.94,0,0,1-1.5,2.58c-2,1.89-2.21-2.21-2.13-3.39a12,12,0,0,1,.62-2.91c.19-.58.57-2.23,1.32-2.33h-.47C24.49,3.1,22.7,6.23,22,7.34a20.1,20.1,0,0,1-2.19,3,2.26,2.26,0,0,1-3.26.15h-.49a3.13,3.13,0,0,0,1.38.22c1.15-.14,1.51-1.27,1.86-2.25.28-.77.58-1.68-.43-1.79A2.64,2.64,0,0,0,17.57,7c-1.82.82-2.7,3.5-3.38,5.17-.45,1.11-1.07,2.53-.58,3.73.18.46.66,1.25,1.28,1.07s.39-.68.42-1.16c.05-1,.2-2,.34-3s.3-2.09.45-3.14c.08-.56.5-1.92.24-2.45-.35-.72-.73.21-.82.57a5.12,5.12,0,0,1-1.28,2.64c-.49.46-1.41,1-2.05.37A2.31,2.31,0,0,1,11.81,9a3.16,3.16,0,0,1,.53-1.63C12.66,6.94,13.62,6,13.69,7S11.77,9.23,11.1,9.86c-.88.84-2.71,2.05-3.15.28-.36-1.42.16-3.64,2-3.7H9.56c.62.28.21,1.08-.06,1.51A2.76,2.76,0,0,1,7.8,9.12c.1,0,.34,0,.48,0Z" transform="translate(0 -0.48)"/><path class="cls-1" d="M20.29,5.76q2.27-.35,4.55-.64a2.78,2.78,0,0,0-.43,0q-2.31.3-4.6.65c.11,0,.33,0,.48,0Z" transform="translate(0 -0.48)"/><path class="cls-1" d="M32,5.65c.16.51,1.2-.16,1.37-.26-.11.07-.37-.08-.5,0a2.66,2.66,0,0,1-.74.39h.49a.12.12,0,0,1-.12-.13c0-.07-.49,0-.5,0Z" transform="translate(0 -0.48)"/></g></g></svg>