<svg xmlns="http://www.w3.org/2000/svg" viewBox="0 0 36.1 12.55"><defs><style>.cls-1{fill:none;}</style></defs><title>Asset 8</title><g id="Layer_2" data-name="Layer 2"><g id="Layer_1-2" data-name="Layer 1"><path class="cls-1" d="M10,0A3.39,3.39,0,0,0,8.16.92C6.2,2.63,5.38,5.3,3.69,7.27A4.9,4.9,0,0,1,2.3,8.44a2.59,2.59,0,0,1-1.76.28c-.14,0-.3-.11-.3-.25a.23.23,0,0,1,.21-.2.65.65,0,0,1,.31.06,11.58,11.58,0,0,0,1.36.49,4.65,4.65,0,0,0,3.23-.47,7.65,7.65,0,0,0,2.48-2.2A5.7,5.7,0,0,0,8.94,4a2.88,2.88,0,0,0-.43-2.35A3.08,3.08,0,0,0,7.36.75,5.78,5.78,0,0,0,2.89.68a4.48,4.48,0,0,0-1.35.75A4.71,4.71,0,0,0,.25,3.5,3.67,3.67,0,0,0,0,4.72,1.73,1.73,0,0,0,.4,5.87a1.71,1.71,0,0,0,1.92.32A3.08,3.08,0,0,0,3.74,4.72,18.94,18.94,0,0,0,4.5,2.78"/><path class="cls-1" d="M9.94,6.88a16,16,0,0,0,2.7-1.35c.23-.14.48-.35.46-.62a.5.5,0,0,0-.34-.4,1.1,1.1,0,0,0-.54,0A2.94,2.94,0,0,0,9.71,7.38a1.17,1.17,0,0,0,.11.56,1,1,0,0,0,1,.44A2.92,2.92,0,0,0,11.85,8l1.34-.71"/><path class="cls-1" d="M13.17,7.27l2.64-1.39a1.61,1.61,0,0,0,.83-.72.36.36,0,0,0,0-.26c-.07-.17-.29-.2-.47-.19A2.78,2.78,0,0,0,13.63,7.3a1.08,1.08,0,0,0,.12.65.91.91,0,0,0,.84.36A2.67,2.67,0,0,0,15.49,8l2.22-1"/><path class="cls-1" d="M17.22,7.13q1.69-2.36,3.21-4.83"/><path class="cls-1" d="M17.38,7.26l-1.1,2c-.25.45-.5.9-.77,1.33-.43.68-.93,1.32-1.43,2"/><path class="cls-1" d="M17.19,7.36a6.24,6.24,0,0,1,3.08-2.54A1.46,1.46,0,0,1,21,4.76a.68.68,0,0,1,.52.42.92.92,0,0,1,0,.53A5.18,5.18,0,0,1,20.82,7a3.19,3.19,0,0,1-2.13,1.66.58.58,0,0,1-.47-.11c-.21-.2-.05-.59.21-.72a2,2,0,0,1,.86-.11,6.31,6.31,0,0,0,3-1.14A8.8,8.8,0,0,0,25.88,3.4.59.59,0,0,0,26,3.12c-.43.09-.7.5-.92.88L23.64,6.4A3,3,0,0,0,23.07,8a.6.6,0,0,0,.16.42.57.57,0,0,0,.24.12,1.66,1.66,0,0,0,1.21-.19,4.31,4.31,0,0,0,1-.79,22.84,22.84,0,0,0,4.74-7"/><path class="cls-1" d="M23.27,4.66a20.56,20.56,0,0,0,3.05-.2"/><path class="cls-1" d="M25.3,8.85A6.4,6.4,0,0,1,26.57,7,11.83,11.83,0,0,1,28,5.5a4,4,0,0,1,1.89-.88.32.32,0,0,1,.22,0c.1.07.09.22.07.35C30,6.21,29.13,7.23,28.73,8.4a.19.19,0,0,0,0,.18.18.18,0,0,0,.13.05,3,3,0,0,0,2.22-1.07,22.91,22.91,0,0,0,2.41-2.64.9.9,0,0,0-.36.41L31.8,7.66c-.11.19-.22.45-.07.62a.51.51,0,0,0,.53.07,4.46,4.46,0,0,0,1.25-.68,31.53,31.53,0,0,0,2.59-2"/><path class="cls-1" d="M34.55,2.61a.28.28,0,0,0-.26.14.22.22,0,0,0,.19.29.33.33,0,0,0,.31-.22.24.24,0,0,0,0-.22.24.24,0,0,0-.09-.08.43.43,0,0,0-.63.32.25.25,0,0,0,0,.15c.06.11.21.13.34.13"/></g></g></svg>