<svg xmlns="http://www.w3.org/2000/svg" viewBox="0 0 34.5 16.54"><title>Asset 15</title><g id="Layer_2" data-name="Layer 2"><g id="Layer_1-2" data-name="Layer 1"><path d="M1.11,11a.34.34,0,0,1-.11.15.34.34,0,0,1-.18.05H.49l-.25,0q-.16,0-.16-.16a14.27,14.27,0,0,1,.09-1.6q.09-.8.2-1.59Q.54,6.56.74,5.34t.48-2.45l-.34,0L.54,3,.37,3H.19Q0,3,0,2.87c0-.09.06-.16.17-.2a1.67,1.67,0,0,1,.39-.11l.44,0h.31a1.34,1.34,0,0,1,.07-.23l.08-.22a1.11,1.11,0,0,1,.21-.37A1,1,0,0,1,2,1.45a1.14,1.14,0,0,1,.44-.1.21.21,0,0,1,.13,0,.16.16,0,0,1,.06.13.41.41,0,0,1,0,.1A1.57,1.57,0,0,0,2.49,2c0,.14-.06.28-.09.42a5.56,5.56,0,0,1,1.67.22,3.7,3.7,0,0,1,1.32.69,3.12,3.12,0,0,1,.87,1.18,4.15,4.15,0,0,1,.31,1.67,2.85,2.85,0,0,1-.35,1.39,4.56,4.56,0,0,1-.89,1.15,6.47,6.47,0,0,1-1.21.89,10.55,10.55,0,0,1-1.28.63q-.35.13-.8.26a3,3,0,0,1-.83.13C1.17,10.8,1.14,10.91,1.11,11Zm.94-1.19q.38-.11.77-.27A9.14,9.14,0,0,0,3.89,9a5.14,5.14,0,0,0,1-.73,3.69,3.69,0,0,0,.73-.95,2.43,2.43,0,0,0,.28-1.16A3.13,3.13,0,0,0,5.6,4.78a3.06,3.06,0,0,0-.78-1,3.56,3.56,0,0,0-1.14-.65,4.31,4.31,0,0,0-1.37-.24Q1.87,5.1,1.52,7.39q-.1.64-.18,1.27a9.63,9.63,0,0,0-.08,1.28A4,4,0,0,0,2.05,9.79Z"/><path d="M7.76,10.66a1.24,1.24,0,0,1-.41-.36,1.45,1.45,0,0,1-.23-.52A2.57,2.57,0,0,1,7,9.17a3.86,3.86,0,0,1,.16-1,5.16,5.16,0,0,1,.44-1.11,3.45,3.45,0,0,1,.69-.91,1.28,1.28,0,0,1,.88-.37.62.62,0,0,1,.5.2.77.77,0,0,1,.17.52,1.5,1.5,0,0,1-.19.67,3.88,3.88,0,0,1-.47.71,4.3,4.3,0,0,1-.61.61,2,2,0,0,1-.6.36A2.4,2.4,0,0,0,8,9.37a1,1,0,0,0,.18.64.71.71,0,0,0,.6.23,1.75,1.75,0,0,0,.72-.15,2.79,2.79,0,0,0,.62-.38,3.5,3.5,0,0,0,.53-.53,5.52,5.52,0,0,0,.42-.6l.14-.2a.26.26,0,0,1,.22-.11.2.2,0,0,1,.11,0,.11.11,0,0,1,.05.1.62.62,0,0,1,0,.19.82.82,0,0,1-.08.17,4.42,4.42,0,0,1-.56.78,4.21,4.21,0,0,1-.73.65,3.58,3.58,0,0,1-.85.44,2.78,2.78,0,0,1-.95.16A1.26,1.26,0,0,1,7.76,10.66Zm1-4.05a3.9,3.9,0,0,0-.34.6,6.12,6.12,0,0,0-.26.69,3.89,3.89,0,0,0-.13.5,3.37,3.37,0,0,0,.42-.32,3.18,3.18,0,0,0,.42-.45,3.14,3.14,0,0,0,.32-.51,1.1,1.1,0,0,0,.13-.5.44.44,0,0,0,0-.19.16.16,0,0,0-.16-.09Q9,6.35,8.8,6.61Z"/><path d="M11.62,10.66a1.24,1.24,0,0,1-.41-.36A1.45,1.45,0,0,1,11,9.79a2.57,2.57,0,0,1-.07-.62,3.86,3.86,0,0,1,.16-1,5.16,5.16,0,0,1,.44-1.11,3.45,3.45,0,0,1,.69-.91,1.28,1.28,0,0,1,.88-.37.62.62,0,0,1,.5.2.77.77,0,0,1,.17.52,1.5,1.5,0,0,1-.19.67,3.88,3.88,0,0,1-.47.71,4.3,4.3,0,0,1-.61.61,2,2,0,0,1-.6.36,2.4,2.4,0,0,0-.06.51A1,1,0,0,0,12,10a.71.71,0,0,0,.6.23,1.75,1.75,0,0,0,.72-.15,2.79,2.79,0,0,0,.62-.38,3.5,3.5,0,0,0,.53-.53,5.52,5.52,0,0,0,.42-.6l.14-.2a.26.26,0,0,1,.22-.11.2.2,0,0,1,.11,0,.11.11,0,0,1,.05.1.62.62,0,0,1,0,.19.82.82,0,0,1-.08.17,4.42,4.42,0,0,1-.56.78,4.21,4.21,0,0,1-.73.65,3.58,3.58,0,0,1-.85.44,2.78,2.78,0,0,1-.95.16A1.26,1.26,0,0,1,11.62,10.66Zm1-4.05a3.9,3.9,0,0,0-.34.6A6.12,6.12,0,0,0,12,7.9a3.89,3.89,0,0,0-.13.5,3.37,3.37,0,0,0,.42-.32,3.18,3.18,0,0,0,.42-.45,3.14,3.14,0,0,0,.32-.51,1.1,1.1,0,0,0,.13-.5.44.44,0,0,0,0-.19A.16.16,0,0,0,13,6.35Q12.83,6.35,12.65,6.61Z"/><path d="M17.29,10.82a3.22,3.22,0,0,1-.54-.1,2.37,2.37,0,0,1-.5-.19,1,1,0,0,1-.36-.31q0,.55-.12,1.3T15.59,13q-.1.77-.24,1.49a6,6,0,0,1-.34,1.2,2.25,2.25,0,0,1-.13.26,1.49,1.49,0,0,1-.19.26,1.1,1.1,0,0,1-.23.2.53.53,0,0,1-.28.08.45.45,0,0,1-.34-.14,1,1,0,0,1-.2-.33,1.7,1.7,0,0,1-.1-.41,3.35,3.35,0,0,1,0-.36,9,9,0,0,1,.13-1.45q.13-.77.32-1.57t.44-1.55q.24-.76.46-1.41a1.28,1.28,0,0,0,0-.31c0-.14,0-.24,0-.32q0-.42.08-.84T15.11,7c0-.07,0-.16,0-.27a1.48,1.48,0,0,1,0-.31.72.72,0,0,1,.11-.25.27.27,0,0,1,.23-.11.43.43,0,0,1,.23.07.72.72,0,0,1,.2.19,1,1,0,0,1,.13.24.67.67,0,0,1,0,.23,2.93,2.93,0,0,1,0,.41c0,.14,0,.28-.05.41q.16-.22.4-.5A6.75,6.75,0,0,1,17,6.59a3.35,3.35,0,0,1,.59-.44A1.17,1.17,0,0,1,18.14,6a.93.93,0,0,1,.48.11.83.83,0,0,1,.3.3,1.39,1.39,0,0,1,.16.43,2.46,2.46,0,0,1,0,.48A3.59,3.59,0,0,1,19,8a5.35,5.35,0,0,1-.22.76,4.89,4.89,0,0,1-.33.72,2.4,2.4,0,0,1-.43.57,1.59,1.59,0,0,1-.26.21.75.75,0,0,1-.31.11,1.83,1.83,0,0,0,.36,0,2.16,2.16,0,0,0,.81-.16,3.3,3.3,0,0,0,.73-.41A3.54,3.54,0,0,0,20,9.26a4.29,4.29,0,0,0,.47-.68l.11-.19a.18.18,0,0,1,.17-.11q.2,0,.2.22a.47.47,0,0,1,0,.19l-.09.16a5.94,5.94,0,0,1-.58.8,4,4,0,0,1-.7.64,3,3,0,0,1-1.81.57Zm-2.62.73q-.17.64-.32,1.33t-.23,1.35A9.21,9.21,0,0,0,14,15.36v.12a.93.93,0,0,0,0,.19,1.36,1.36,0,0,0,0,.16s0,.07.08.07.1-.06.14-.19a3.12,3.12,0,0,0,.13-.42c0-.16.07-.3.09-.44l0-.27q.17-1,.27-2T15,10.48A9,9,0,0,0,14.67,11.55ZM16,9.83a.38.38,0,0,1,.22.08.63.63,0,0,0,.37.08.94.94,0,0,0,.68-.35,3.56,3.56,0,0,0,.56-.82,5.3,5.3,0,0,0,.38-1,3.17,3.17,0,0,0,.14-.8,1.25,1.25,0,0,0-.07-.38.28.28,0,0,0-.29-.2.84.84,0,0,0-.49.22,4.77,4.77,0,0,0-.55.52,7.08,7.08,0,0,0-.5.61,4.44,4.44,0,0,0-.32.49,1,1,0,0,0-.07.28Q16,8.8,16,9c0,.17,0,.33,0,.49s0,.27,0,.33A.11.11,0,0,1,16,9.83Z"/><path d="M22.61,6.07q-.28.56-.58,1.05a2.15,2.15,0,0,1-.16.25l-.17.23-.1.13a.49.49,0,0,0-.08.13.3.3,0,0,0,0,.13v.13q0,.18,0,.56a6.21,6.21,0,0,0,.11.76,2.54,2.54,0,0,0,.23.67.44.44,0,0,0,.39.29,1,1,0,0,0,.57-.21,3.82,3.82,0,0,0,.56-.5,5.4,5.4,0,0,0,.49-.61c.15-.21.27-.39.35-.53a1.12,1.12,0,0,1,.13-.18.24.24,0,0,1,.18-.1.16.16,0,0,1,.12.05.18.18,0,0,1,0,.13.54.54,0,0,1-.06.25l-.13.24c-.11.19-.26.41-.44.67a6.14,6.14,0,0,1-.61.71,4.07,4.07,0,0,1-.71.57,1.37,1.37,0,0,1-.73.23.84.84,0,0,1-.55-.19,1.61,1.61,0,0,1-.4-.5,3.52,3.52,0,0,1-.27-.69A6.65,6.65,0,0,1,20.65,9q-.06-.38-.08-.73t0-.57q0-.59,0-1.18a8.71,8.71,0,0,1,.16-1.17.88.88,0,0,1-.25,0,.25.25,0,0,1-.29-.29.3.3,0,0,1,.21-.31,1.52,1.52,0,0,1,.4-.08q.1-.32.28-.87a8.29,8.29,0,0,1,.44-1.08,4.11,4.11,0,0,1,.61-.92,1,1,0,0,1,.76-.38.38.38,0,0,1,.3.12.78.78,0,0,1,.16.29,1.45,1.45,0,0,1,.07.35c0,.12,0,.23,0,.32a7,7,0,0,1-.07.95,6.61,6.61,0,0,1-.2.94l.41-.06a2.34,2.34,0,0,1,.41,0c.11,0,.17.05.17.16a.19.19,0,0,1,0,.14L24,4.68l-.18.07-.29.08-.3.08L23,5A5.79,5.79,0,0,1,22.61,6.07Zm-1.13.12q0,.49-.07,1a4.64,4.64,0,0,0,.29-.43c.11-.18.21-.36.31-.56s.19-.39.27-.58a4.17,4.17,0,0,0,.18-.5,3.14,3.14,0,0,1-.43.07,2.11,2.11,0,0,0-.42.08A5.81,5.81,0,0,0,21.47,6.19Zm1-3.83a4.56,4.56,0,0,0-.37.77,8.77,8.77,0,0,0-.28.86,5.36,5.36,0,0,0-.14.6l.49-.05a2.88,2.88,0,0,0,.49-.08,7.72,7.72,0,0,0,.24-1,6.25,6.25,0,0,0,.1-1V2.3a.63.63,0,0,0,0-.12.43.43,0,0,0,0-.11.08.08,0,0,0-.07,0Q22.68,2,22.48,2.36Z"/><path d="M27.47,6.68a5.55,5.55,0,0,0-.49.65q-.26.4-.55.87t-.54.92l-.43.8c-.12.24-.21.41-.26.51l-.11.23-.14.23a.73.73,0,0,1-.19.18.42.42,0,0,1-.24.07.29.29,0,0,1-.21-.08.6.6,0,0,1-.12-.19.71.71,0,0,1-.06-.23c0-.08,0-.16,0-.22a4,4,0,0,1,0-.62c0-.2.06-.41.08-.62q.07-.58.14-1.14T24.5,6.9q.07-.65.17-1.46t.25-1.65q.14-.83.35-1.61A6.57,6.57,0,0,1,25.76.84a2,2,0,0,1,.17-.29,2.11,2.11,0,0,1,.23-.27,1.09,1.09,0,0,1,.28-.2A.71.71,0,0,1,26.77,0a.46.46,0,0,1,.33.12.83.83,0,0,1,.2.29,1.37,1.37,0,0,1,.1.37,3,3,0,0,1,0,.34A8.65,8.65,0,0,1,27,3.74,16.76,16.76,0,0,1,26,6.2c-.1.19-.2.38-.3.56l-.3.55a1.7,1.7,0,0,0-.09.34c0,.18-.07.38-.11.59s-.07.42-.1.62-.05.33-.07.41c.07-.16.17-.36.3-.59s.27-.49.43-.76.33-.53.52-.8a7.88,7.88,0,0,1,.58-.72,3.1,3.1,0,0,1,.6-.52,1.08,1.08,0,0,1,.58-.2.51.51,0,0,1,.34.11.79.79,0,0,1,.21.27,1.28,1.28,0,0,1,.11.35,2.29,2.29,0,0,1,0,.35,10,10,0,0,1-.12,1.51,10,10,0,0,0-.11,1.51q0,.08,0,.18a.59.59,0,0,0,0,.17.33.33,0,0,0,.1.13.29.29,0,0,0,.19.05.92.92,0,0,0,.53-.2,4,4,0,0,0,.55-.48,6.84,6.84,0,0,0,.49-.58c.15-.2.27-.36.35-.49l.13-.19a.23.23,0,0,1,.19-.11.15.15,0,0,1,.14.07.35.35,0,0,1,0,.17.19.19,0,0,1,0,.1l0,.09a6,6,0,0,1-.48.76,5.69,5.69,0,0,1-.67.76,3.79,3.79,0,0,1-.8.59,1.74,1.74,0,0,1-.85.23.42.42,0,0,1-.38-.19,1.4,1.4,0,0,1-.19-.46,2.78,2.78,0,0,1-.06-.55c0-.19,0-.34,0-.45q0-.65.06-1.3c0-.43.09-.86.13-1.3v-.1s0-.1,0-.17,0-.11-.11-.11S27.62,6.52,27.47,6.68ZM26.47,1a5.93,5.93,0,0,0-.34.92q-.16.56-.3,1.24t-.24,1.31q-.1.63-.17,1.13c0,.33-.07.57-.08.7q.28-.49.56-1.14t.52-1.34a14.09,14.09,0,0,0,.39-1.38A5.53,5.53,0,0,0,27,1.18V1a1.06,1.06,0,0,0,0-.19,1.3,1.3,0,0,0,0-.17s0-.07-.08-.07S26.58.73,26.47,1Z"/><path d="M31.69,9.5a1.83,1.83,0,0,0,0,.36,1,1,0,0,0,.13.31.27.27,0,0,0,.24.13.87.87,0,0,0,.52-.22,4.23,4.23,0,0,0,.55-.53,6.7,6.7,0,0,0,.49-.63L34,8.41l.14-.19a.24.24,0,0,1,.2-.11c.08,0,.13,0,.14.08a.82.82,0,0,1,0,.18.37.37,0,0,1,0,.14,1.44,1.44,0,0,1-.09.17l-.11.17L34.18,9q-.17.24-.43.57a6.18,6.18,0,0,1-.58.63,4.21,4.21,0,0,1-.65.51,1.24,1.24,0,0,1-.66.21.75.75,0,0,1-.57-.22,1.57,1.57,0,0,1-.33-.54,2.63,2.63,0,0,1-.16-.67,6.09,6.09,0,0,1,0-.62,4.11,4.11,0,0,1,.08-.75A6.61,6.61,0,0,1,31,7.38a1.66,1.66,0,0,1,.29-.55.7.7,0,0,1,.57-.22c.18,0,.28.09.28.26a1.13,1.13,0,0,1,0,.28c0,.11-.06.22-.1.34l-.12.35c0,.12-.07.22-.1.31a5.18,5.18,0,0,0-.11,1.07Q31.68,9.32,31.69,9.5Zm.78-4.59a.48.48,0,0,1,.11.32.66.66,0,0,1-.17.44.52.52,0,0,1-.41.2.36.36,0,0,1-.3-.14.5.5,0,0,1-.11-.32A.69.69,0,0,1,31.76,5a.5.5,0,0,1,.4-.2A.38.38,0,0,1,32.47,4.91Z"/></g></g></svg>