<svg xmlns="http://www.w3.org/2000/svg" viewBox="0 0 25.57 10.2"><defs><style>.cls-1{fill:none;}</style></defs><title>Asset 7</title><g id="Layer_2" data-name="Layer 2"><g id="Layer_1-2" data-name="Layer 1"><path class="cls-1" d="M2,3.05C1.19,2.19.9,1.27,1.22.82s1.4-.28,2-.16A6.12,6.12,0,0,1,6.67,2.95a4,4,0,0,1,.92,1.71A2.84,2.84,0,0,1,7.25,7,3,3,0,0,1,4.93,8C4.1,8,4,7.7,2.73,7.49S.08,7.29,0,7.62c0,.14.2.31.24.33.67.48,1.83-.09,2.3-.31,2.32-1.13,2.94-6.52,3-7.16"/><path class="cls-1" d="M8.92,6.71C9.84,6.1,10.76,5.37,10.6,5c-.08-.2-.38-.24-.42-.25-.73-.09-1.46,1-1.64,1.93a1.14,1.14,0,0,0,0,.74A1.16,1.16,0,0,0,9.37,8a1.39,1.39,0,0,0,1.39-.71"/><path class="cls-1" d="M11.6,6.78a2.83,2.83,0,0,0,1.79-1.25c.06-.13.2-.42.08-.6s-.51-.2-.76-.13c-.74.2-1,1.15-1.18,1.64a1.28,1.28,0,0,0-.05.7,1.08,1.08,0,0,0,.32.56c.37.31,1.18.18,1.87-.44"/><path class="cls-1" d="M15.22,4.84l-.37,1.62,0,.11L14,10.2"/><path class="cls-1" d="M15.07,6.37c.69-1.09,1.41-1.78,1.82-1.62s.41.94.39,1.25a2.42,2.42,0,0,1-1.06,1.76,1.07,1.07,0,0,1-.77.3,1.08,1.08,0,0,1-.73-.6"/><path class="cls-1" d="M19.25,3.09c-.45,2-.64,2.88-.72,3.19l0,.21a2.62,2.62,0,0,0-.14.9.71.71,0,0,0,.29.49c.27.14.72-.05,1.06-.52"/><path class="cls-1" d="M20,4.77l-1.86,0"/><path class="cls-1" d="M22,0,20.35,7.89"/><path class="cls-1" d="M20.75,6.85c.23-.36,1.41-2.21,1.87-2.05a.54.54,0,0,1,.31.26.49.49,0,0,1,0,.32c-.18.72-.6,1.36-.49,2,0,.05.09.46.32.52s.44-.14.62-.46"/><path class="cls-1" d="M24.78,4.75a12.38,12.38,0,0,0-.5,2.16,1.94,1.94,0,0,0-.06.57.49.49,0,0,0,.05.24.44.44,0,0,0,.24.21c.2.06.5-.13.66-.51"/><path class="cls-1" d="M25.23,2.6c-.09-.15-.19-.24-.25-.22s-.06.07-.08.11a.34.34,0,0,0,0,.13.34.34,0,0,0,0,.09.38.38,0,0,0,.25.25h.09a.34.34,0,0,0,.13,0,.34.34,0,0,0,.21-.32.37.37,0,0,0-.05-.19l0-.05-.05,0a.37.37,0,0,0-.19-.05.39.39,0,0,0-.15,0"/></g></g></svg>